                                                                        S      1
,,,8HA4D-5335,22HAutodesk Inventor 2014,7Hunknown,32,38,7,99,15,,1.,2,2HG      1
MM,1,0.08,15H20170217.112319,0.01,10000.,7Hmgarcia,,11,0,;              G      2
     406       1                       1                        00000000D      1
     406                       1       3                               0D      2
     186       2                                                00000000D      3
     186            -169       1       0                               0D      4
     514       3                                                00010000D      5
     514                       2       1                               0D      6
     510       5                                                00010000D      7
     510            -169       1       1                               0D      8
     510       6                                                00010000D      9
     510            -169       1       1                               0D     10
     510       7                                                00010000D     11
     510            -169       1       1                               0D     12
     510       8                                                00010000D     13
     510            -169       1       1                               0D     14
     510       9                                                00010000D     15
     510            -169       1       1                               0D     16
     510      10                                                00010000D     17
     510            -169       1       1                               0D     18
     510      11                                                00010000D     19
     510            -169       1       1                               0D     20
     510      12                                                00010000D     21
     510            -169       1       1                               0D     22
     510      13                                                00010000D     23
     510            -169       1       1                               0D     24
     510      14                                                00010000D     25
     510            -169       1       1                               0D     26
     510      15                                                00010000D     27
     510            -169       1       1                               0D     28
     510      16                                                00010000D     29
     510            -169       1       1                               0D     30
     510      17                                                00010000D     31
     510            -169       1       1                               0D     32
     508      18                                                00010000D     33
     508                       1       1                               0D     34
     508      19                                                00010000D     35
     508                       1       1                               0D     36
     508      20                                                00010000D     37
     508                       2       1                               0D     38
     508      22                                                00010000D     39
     508                       1       1                               0D     40
     508      23                                                00010000D     41
     508                       1       1                               0D     42
     508      24                                                00010000D     43
     508                       2       1                               0D     44
     508      26                                                00010000D     45
     508                       1       1                               0D     46
     508      27                                                00010000D     47
     508                       1       1                               0D     48
     508      28                                                00010000D     49
     508                       2       1                               0D     50
     508      30                                                00010000D     51
     508                       1       1                               0D     52
     508      31                                                00010000D     53
     508                       1       1                               0D     54
     508      32                                                00010000D     55
     508                       2       1                               0D     56
     508      34                                                00010000D     57
     508                       2       1                               0D     58
     508      36                                                00010000D     59
     508                       1       1                               0D     60
     508      37                                                00010000D     61
     508                       1       1                               0D     62
     508      38                                                00010000D     63
     508                       2       1                               0D     64
     508      40                                                00010000D     65
     508                       2       1                               0D     66
     508      42                                                00010000D     67
     508                       2       1                               0D     68
     126      44                                                00010000D     69
     126       0               7       0                               0D     70
     126      51                                                00010000D     71
     126       0               8       0                               0D     72
     126      59                                                00010000D     73
     126       0               8       0                               0D     74
     126      67                                                00010000D     75
     126       0               5       0                               0D     76
     126      72                                                00010000D     77
     126       0               7       0                               0D     78
     126      79                                                00010000D     79
     126       0               3       0                               0D     80
     126      82                                                00010000D     81
     126       0               8       0                               0D     82
     126      90                                                00010000D     83
     126       0               5       0                               0D     84
     126      95                                                00010000D     85
     126       0              10       0                               0D     86
     126     105                                                00010000D     87
     126       0               6       0                               0D     88
     126     111                                                00010000D     89
     126       0               8       0                               0D     90
     126     119                                                00010000D     91
     126       0               3       0                               0D     92
     126     122                                                00010000D     93
     126       0               7       0                               0D     94
     126     129                                                00010000D     95
     126       0               9       0                               0D     96
     126     138                                                00010000D     97
     126       0               7       0                               0D     98
     126     145                                                00010000D     99
     126       0               9       0                               0D    100
     126     154                                                00010000D    101
     126       0               5       0                               0D    102
     126     159                                                00010000D    103
     126       0               7       0                               0D    104
     126     166                                                00010000D    105
     126       0               4       0                               0D    106
     126     170                                                00010000D    107
     126       0               6       0                               0D    108
     126     176                                                00010000D    109
     126       0               8       0                               0D    110
     126     184                                                00010000D    111
     126       0               3       0                               0D    112
     126     187                                                00010000D    113
     126       0               6       0                               0D    114
     126     193                                                00010000D    115
     126       0               8       0                               0D    116
     126     201                                                00010000D    117
     126       0               3       0                               0D    118
     126     204                                                00010000D    119
     126       0               6       0                               0D    120
     126     210                                                00010000D    121
     126       0               8       0                               0D    122
     126     218                                                00010000D    123
     126       0               3       0                               0D    124
     126     221                                                00010000D    125
     126       0               6       0                               0D    126
     126     227                                                00010000D    127
     126       0               8       0                               0D    128
     126     235                                                00010000D    129
     126       0               3       0                               0D    130
     126     238                                                00010000D    131
     126       0               6       0                               0D    132
     126     244                                                00010000D    133
     126       0               8       0                               0D    134
     126     252                                                00010000D    135
     126       0               4       0                               0D    136
     128     256                                                00010000D    137
     128       0    -169       4       0                               0D    138
     128     260                                                00010000D    139
     128       0    -169      14       0                               0D    140
     128     274                                                00010000D    141
     128       0    -169       4       0                               0D    142
     128     278                                                00010000D    143
     128       0    -169      14       0                               0D    144
     128     292                                                00010000D    145
     128       0    -169       6       0                               0D    146
     128     298                                                00010000D    147
     128       0    -169      18       0                               0D    148
     128     316                                                00010000D    149
     128       0    -169       4       0                               0D    150
     128     320                                                00010000D    151
     128       0    -169      14       0                               0D    152
     128     334                                                00010000D    153
     128       0    -169      14       0                               0D    154
     128     348                                                00010000D    155
     128       0    -169       4       0                               0D    156
     128     352                                                00010000D    157
     128       0    -169      14       0                               0D    158
     128     366                                                00010000D    159
     128       0    -169      15       0                               0D    160
     128     381                                                00010000D    161
     128       0    -169      18       0                               0D    162
     502     399                                                00010000D    163
     502                       8       1                               0D    164
     504     407                                                00010001D    165
     504                      10       1                               0D    166
     406     417                                                00000000D    167
     406                       1      15                               0D    168
     314     418                                                00000200D    169
     314                       1       0                               0D    170
406,2,0,8HA4D-5335;                                                    1P      1
186,5,1,0,0,1,167;                                                     3P      2
514,13,7,1,9,1,11,1,13,1,15,1,17,1,19,1,21,1,23,1,25,1,27,1,29,        5P      3
1,31,1;                                                                5P      4
510,137,2,1,35,33;                                                     7P      5
510,139,1,1,37;                                                        9P      6
510,141,2,1,39,41;                                                    11P      7
510,143,1,1,43;                                                       13P      8
510,145,2,1,45,47;                                                    15P      9
510,147,1,1,49;                                                       17P     10
510,149,2,1,51,53;                                                    19P     11
510,151,1,1,55;                                                       21P     12
510,153,1,1,57;                                                       23P     13
510,155,2,1,59,61;                                                    25P     14
510,157,1,1,63;                                                       27P     15
510,159,1,1,65;                                                       29P     16
510,161,1,1,67;                                                       31P     17
508,2,0,165,1,1,0,0,165,2,1,0;                                        33P     18
508,2,0,165,3,0,0,0,165,4,0,0;                                        35P     19
508,6,0,165,5,1,0,0,165,6,1,0,0,165,1,0,0,0,165,2,0,0,0,165,6,0,      37P     20
0,0,165,7,1,0;                                                        37P     21
508,2,0,165,8,0,0,0,165,9,0,0;                                        39P     22
508,2,0,165,5,0,0,0,165,7,0,0;                                        41P     23
508,6,0,165,10,0,0,0,165,11,0,0,0,165,12,1,0,0,165,9,1,0,0,165,       43P     24
8,1,0,0,165,12,0,0;                                                   43P     25
508,2,0,165,13,0,0,0,165,14,0,0;                                      45P     26
508,2,0,165,15,1,0,0,165,16,1,0;                                      47P     27
508,6,0,165,17,0,0,0,165,18,0,0,0,165,19,1,0,0,165,14,1,0,0,165,      49P     28
13,1,0,0,165,19,0,0;                                                  49P     29
508,2,0,165,20,0,0,0,165,21,0,0;                                      51P     30
508,2,0,165,17,1,0,0,165,18,1,0;                                      53P     31
508,6,0,165,3,1,0,0,165,22,1,0,0,165,21,1,0,0,165,20,1,0,0,165,       55P     32
22,0,0,0,165,4,1,0;                                                   55P     33
508,6,0,165,23,0,0,0,165,24,0,0,0,165,25,1,0,0,165,11,1,0,0,165,      57P     34
10,1,0,0,165,25,0,0;                                                  57P     35
508,2,0,165,23,1,0,0,165,24,1,0;                                      59P     36
508,2,0,165,26,0,0,0,165,27,0,0;                                      61P     37
508,6,0,165,26,1,0,0,165,28,1,0,0,165,29,0,0,0,165,30,0,0,0,165,      63P     38
28,0,0,0,165,27,1,0;                                                  63P     39
508,6,0,165,29,1,0,0,165,31,1,0,0,165,32,0,0,0,165,33,0,0,0,165,      65P     40
31,0,0,0,165,30,1,0;                                                  65P     41
508,6,0,165,32,1,0,0,165,34,1,0,0,165,15,0,0,0,165,16,0,0,0,165,      67P     42
34,0,0,0,165,33,1,0;                                                  67P     43
126,4,2,0,0,0,0,1.5707963267949,1.5707963267949,1.5707963267949,      69P     44
3.14159265358979,3.14159265358979,4.71238898038469,                   69P     45
4.71238898038469,4.71238898038469,1.,0.707106781186548,1.,            69P     46
0.707106781186548,1.,9.41447226844528D-016,10.,15.375,-15.375,        69P     47
10.,15.375,-15.375,10.,1.88289445368906D-015,-15.375,10.,             69P     48
-15.375,-2.82434168053358D-015,10.,-15.375,1.5707963267949,           69P     49
4.71238898038469,0.,0.,0.;                                            69P     50
126,4,2,0,0,0,0,4.71238898038469,4.71238898038469,                    71P     51
4.71238898038469,6.28318530717959,6.28318530717959,                   71P     52
7.85398163397448,7.85398163397448,7.85398163397448,1.,                71P     53
0.707106781186548,1.,0.707106781186547,1.,                            71P     54
-2.82434168053358D-015,10.,-15.375,15.375,10.,-15.375,15.375,         71P     55
10.,-3.76578890737811D-015,15.375,10.,15.375,                         71P     56
4.70723613422264D-015,10.,15.375,4.71238898038469,                    71P     57
7.85398163397448,0.,0.,0.;                                            71P     58
126,6,2,0,0,0,0,-1.5707963267949,-1.5707963267949,                    73P     59
-1.5707963267949,0.,0.,1.5707963267949,1.5707963267949,               73P     60
3.14159265358979,3.14159265358979,3.14159265358979,1.,                73P     61
0.707106781186547,1.,0.707106781186547,1.,0.707106781186547,1.,       73P     62
-1.02717250278484D-015,10.,16.775,-16.775,10.,16.775,-16.775,         73P     63
10.,0.,-16.775,10.,-16.775,-1.02717250278484D-015,10.,-16.775,        73P     64
16.775,10.,-16.775,16.775,10.,-2.05434500556969D-015,                 73P     65
-1.5707963267949,3.14159265358979,0.,0.,0.;                           73P     66
126,2,2,0,0,0,0,3.14159265358979,3.14159265358979,                    75P     67
3.14159265358979,4.71238898038469,4.71238898038469,                   75P     68
4.71238898038469,1.,0.707106781186548,1.,16.775,10.,                  75P     69
-2.05434500556969D-015,16.775,10.,16.775,3.08151750835453D-015,       75P     70
10.,16.775,3.14159265358979,4.71238898038469,0.,0.,0.;                75P     71
126,4,2,0,0,0,0,1.5707963267949,1.5707963267949,1.5707963267949,      77P     72
3.14159265358979,3.14159265358979,4.71238898038469,                   77P     73
4.71238898038469,4.71238898038469,1.,0.707106781186547,1.,            77P     74
0.707106781186548,1.,9.41447226844528D-016,13.,15.375,-15.375,        77P     75
13.,15.375,-15.375,13.,1.88289445368906D-015,-15.375,13.,             77P     76
-15.375,-2.82434168053358D-015,13.,-15.375,1.5707963267949,           77P     77
4.71238898038469,0.,0.,0.;                                            77P     78
126,1,1,0,0,1,0,-0.0975609756097562,-0.0975609756097562,              79P     79
0.097560975609756,0.097560975609756,1.,1.,0.,13.,-15.375,0.,10.,      79P     80
-15.375,-0.0975609756097562,0.097560975609756,0.,0.,0.;               79P     81
126,4,2,0,0,0,0,4.71238898038469,4.71238898038469,                    81P     82
4.71238898038469,6.28318530717959,6.28318530717959,                   81P     83
7.85398163397448,7.85398163397448,7.85398163397448,1.,                81P     84
0.707106781186547,1.,0.707106781186547,1.,                            81P     85
-2.82434168053358D-015,13.,-15.375,15.375,13.,-15.375,15.375,         81P     86
13.,-3.76578890737811D-015,15.375,13.,15.375,                         81P     87
4.70723613422264D-015,13.,15.375,4.71238898038469,                    81P     88
7.85398163397448,0.,0.,0.;                                            81P     89
126,2,2,0,0,0,0,1.5707963267949,1.5707963267949,1.5707963267949,      83P     90
3.14159265358979,3.14159265358979,3.14159265358979,1.,                83P     91
0.707106781186547,1.,-1.02717250278484D-015,13.,16.775,16.775,        83P     92
13.,16.775,16.775,13.,2.05434500556969D-015,1.5707963267949,          83P     93
3.14159265358979,0.,0.,0.;                                            83P     94
126,6,2,0,0,0,0,3.14159265358979,3.14159265358979,                    85P     95
3.14159265358979,4.71238898038469,4.71238898038469,                   85P     96
6.28318530717959,6.28318530717959,7.85398163397448,                   85P     97
7.85398163397448,7.85398163397448,1.,0.707106781186548,1.,            85P     98
0.707106781186547,1.,0.707106781186547,1.,16.775,13.,                 85P     99
2.05434500556969D-015,16.775,13.,-16.775,3.08151750835453D-015,       85P    100
13.,-16.775,-16.775,13.,-16.775,-16.775,13.,                          85P    101
-4.10869001113937D-015,-16.775,13.,16.775,                            85P    102
-5.13586251392421D-015,13.,16.775,3.14159265358979,                   85P    103
7.85398163397448,0.,0.,0.;                                            85P    104
126,4,2,0,0,0,0,0.,0.,0.,1.5707963267949,1.5707963267949,             87P    105
3.14159265358979,3.14159265358979,3.14159265358979,1.,                87P    106
0.707106781186548,1.,0.707106781186548,1.,-16.775,16.,0.,             87P    107
-16.775,16.,16.775,-1.02717250278484D-015,16.,16.775,16.775,16.,      87P    108
16.775,16.775,16.,2.05434500556969D-015,0.,3.14159265358979,0.,       87P    109
0.,0.;                                                                87P    110
126,4,2,0,0,0,0,3.14159265358979,3.14159265358979,                    89P    111
3.14159265358979,4.71238898038469,4.71238898038469,                   89P    112
6.28318530717959,6.28318530717959,6.28318530717959,1.,                89P    113
0.707106781186548,1.,0.707106781186548,1.,16.775,16.,                 89P    114
2.05434500556969D-015,16.775,16.,-16.775,3.08151750835453D-015,       89P    115
16.,-16.775,-16.775,16.,-16.775,-16.775,16.,                          89P    116
-4.10869001113937D-015,3.14159265358979,6.28318530717959,0.,0.,       89P    117
0.;                                                                   89P    118
126,1,1,0,0,1,0,-0.432190760059613,-0.432190760059613,                91P    119
-0.253353204172876,-0.253353204172876,1.,1.,16.775,16.,0.,            91P    120
16.775,13.,0.,-0.432190760059613,-0.253353204172876,0.,0.,0.;         91P    121
126,4,2,0,0,0,0,0.,0.,0.,1.5707963267949,1.5707963267949,             93P    122
3.14159265358979,3.14159265358979,3.14159265358979,1.,                93P    123
0.707106781186548,1.,0.707106781186548,1.,-16.25,                     93P    124
3.10623922417097D-016,0.,-16.25,3.10623922417097D-016,16.25,          93P    125
-9.95025524307224D-016,3.10623922417097D-016,16.25,16.25,             93P    126
3.10623922417097D-016,16.25,16.25,3.10623922417097D-016,              93P    127
1.99005104861445D-015,0.,3.14159265358979,0.,0.,0.;                   93P    128
126,4,2,0,0,0,0,3.14159265358979,3.14159265358979,                    95P    129
3.14159265358979,4.71238898038469,4.71238898038469,                   95P    130
6.28318530717959,6.28318530717959,6.28318530717959,1.,                95P    131
0.707106781186548,1.,0.707106781186547,1.,16.25,                      95P    132
3.10623922417097D-016,1.99005104861445D-015,16.25,                    95P    133
3.10623922417097D-016,-16.25,2.98507657292167D-015,                   95P    134
3.10623922417097D-016,-16.25,-16.25,3.10623922417097D-016,            95P    135
-16.25,-16.25,3.10623922417097D-016,-3.9801020972289D-015,            95P    136
3.14159265358979,6.28318530717959,0.,0.,0.;                           95P    137
126,4,2,0,0,0,0,0.,0.,0.,1.5707963267949,1.5707963267949,             97P    138
3.14159265358979,3.14159265358979,3.14159265358979,1.,                97P    139
0.707106781186547,1.,0.707106781186547,1.,-15.95,                     97P    140
-5.55111512312578D-016,0.,-15.95,-5.55111512312578D-016,15.95,        97P    141
-9.76655822320014D-016,-5.55111512312578D-016,15.95,15.95,            97P    142
-5.55111512312578D-016,15.95,15.95,-5.55111512312578D-016,            97P    143
1.95331164464003D-015,0.,3.14159265358979,0.,0.,0.;                   97P    144
126,4,2,0,0,0,0,3.14159265358979,3.14159265358979,                    99P    145
3.14159265358979,4.71238898038469,4.71238898038469,                   99P    146
6.28318530717959,6.28318530717959,6.28318530717959,1.,                99P    147
0.707106781186548,1.,0.707106781186547,1.,15.95,                      99P    148
-5.55111512312578D-016,1.95331164464003D-015,15.95,                   99P    149
-5.55111512312578D-016,-15.95,2.92996746696004D-015,                  99P    150
-5.55111512312578D-016,-15.95,-15.95,-5.55111512312578D-016,          99P    151
-15.95,-15.95,-5.55111512312578D-016,-3.90662328928006D-015,          99P    152
3.14159265358979,6.28318530717959,0.,0.,0.;                           99P    153
126,4,2,0,0,0,0,0.,0.,0.,1.5707963267949,1.5707963267949,            101P    154
3.14159265358979,3.14159265358979,3.14159265358979,1.,               101P    155
0.707106781186548,1.,0.707106781186548,1.,-16.25,1.5,0.,-16.25,      101P    156
1.5,16.25,-9.95025524307224D-016,1.5,16.25,16.25,1.5,16.25,          101P    157
16.25,1.5,1.99005104861445D-015,0.,3.14159265358979,0.,0.,0.;        101P    158
126,4,2,0,0,0,0,3.14159265358979,3.14159265358979,                   103P    159
3.14159265358979,4.71238898038469,4.71238898038469,                  103P    160
6.28318530717959,6.28318530717959,6.28318530717959,1.,               103P    161
0.707106781186548,1.,0.707106781186547,1.,16.25,1.5,                 103P    162
1.99005104861445D-015,16.25,1.5,-16.25,2.98507657292167D-015,        103P    163
1.5,-16.25,-16.25,1.5,-16.25,-16.25,1.5,-3.9801020972289D-015,       103P    164
3.14159265358979,6.28318530717959,0.,0.,0.;                          103P    165
126,1,1,0,0,1,0,-0.0461538461538461,-0.0461538461538461,             105P    166
0.0461538461538461,0.0461538461538461,1.,1.,16.25,1.5,0.,16.25,      105P    167
2.77555756156289D-016,0.,-0.0461538461538461,0.0461538461538461,     105P    168
0.,0.,0.;                                                            105P    169
126,4,2,0,0,0,0,0.,0.,0.,1.5707963267949,1.5707963267949,            107P    170
3.14159265358979,3.14159265358979,3.14159265358979,1.,               107P    171
0.707106781186548,1.,0.707106781186547,1.,-16.775,1.5,0.,            107P    172
-16.775,1.5,16.775,-1.02717250278484D-015,1.5,16.775,16.775,1.5,     107P    173
16.775,16.775,1.5,2.05434500556968D-015,0.,3.14159265358979,0.,      107P    174
0.,0.;                                                               107P    175
126,4,2,0,0,0,0,3.14159265358979,3.14159265358979,                   109P    176
3.14159265358979,4.71238898038469,4.71238898038469,                  109P    177
6.28318530717959,6.28318530717959,6.28318530717959,1.,               109P    178
0.707106781186548,1.,0.707106781186547,1.,16.775,1.5,                109P    179
2.05434500556968D-015,16.775,1.5,-16.775,3.08151750835453D-015,      109P    180
1.5,-16.775,-16.775,1.5,-16.775,-16.775,1.5,                         109P    181
-4.10869001113937D-015,3.14159265358979,6.28318530717959,0.,0.,      109P    182
0.;                                                                  109P    183
126,1,1,0,0,1,0,-0.0745156482861404,-0.0745156482861404,             111P    184
0.432190760059612,0.432190760059612,1.,1.,16.775,10.,0.,16.775,      111P    185
1.5,0.,-0.0745156482861404,0.432190760059612,0.,0.,0.;               111P    186
126,4,2,0,0,0,0,0.,0.,0.,1.5707963267949,1.5707963267949,            113P    187
3.14159265358979,3.14159265358979,3.14159265358979,1.,               113P    188
0.707106781186548,1.,0.707106781186548,1.,-15.775,17.,0.,            113P    189
-15.775,17.,15.775,-9.65940162827475D-016,17.,15.775,15.775,17.,     113P    190
15.775,15.775,17.,1.93188032565495D-015,0.,3.14159265358979,0.,      113P    191
0.,0.;                                                               113P    192
126,4,2,0,0,0,0,3.14159265358979,3.14159265358979,                   115P    193
3.14159265358979,4.71238898038469,4.71238898038469,                  115P    194
6.28318530717959,6.28318530717959,6.28318530717959,1.,               115P    195
0.707106781186548,1.,0.707106781186548,1.,15.775,17.,                115P    196
1.93188032565495D-015,15.775,17.,-15.775,2.89782048848242D-015,      115P    197
17.,-15.775,-15.775,17.,-15.775,-15.775,17.,                         115P    198
-3.8637606513099D-015,3.14159265358979,6.28318530717959,0.,0.,       115P    199
0.;                                                                  115P    200
126,1,1,0,0,1,0,-0.0434474212710629,-0.0434474212710629,             117P    201
0.0434474212710629,0.0434474212710629,1.,1.,15.775,17.,0.,           117P    202
16.775,16.,0.,-0.0434474212710629,0.0434474212710629,0.,0.,0.;       117P    203
126,4,2,0,0,0,0,0.,0.,0.,1.5707963267949,1.5707963267949,            119P    204
3.14159265358979,3.14159265358979,3.14159265358979,1.,               119P    205
0.707106781186547,1.,0.707106781186548,1.,-12.825,17.,0.,            119P    206
-12.825,17.,12.825,-7.8530475995324D-016,17.,12.825,12.825,17.,      119P    207
12.825,12.825,17.,1.57060951990648D-015,0.,3.14159265358979,0.,      119P    208
0.,0.;                                                               119P    209
126,4,2,0,0,0,0,3.14159265358979,3.14159265358979,                   121P    210
3.14159265358979,4.71238898038469,4.71238898038469,                  121P    211
6.28318530717959,6.28318530717959,6.28318530717959,1.,               121P    212
0.707106781186548,1.,0.707106781186547,1.,12.825,17.,                121P    213
1.57060951990648D-015,12.825,17.,-12.825,2.35591427985972D-015,      121P    214
17.,-12.825,-12.825,17.,-12.825,-12.825,17.,                         121P    215
-3.14121903981296D-015,3.14159265358979,6.28318530717959,0.,0.,      121P    216
0.;                                                                  121P    217
126,1,1,0,0,1,0,-0.0455280020079869,-0.0455280020079869,             123P    218
0.045528002007987,0.045528002007987,1.,1.,12.825,17.,0.,12.025,      123P    219
16.2,0.,-0.0455280020079869,0.045528002007987,0.,0.,0.;              123P    220
126,4,2,0,0,0,0,0.,0.,0.,1.5707963267949,1.5707963267949,            125P    221
3.14159265358979,3.14159265358979,3.14159265358979,1.,               125P    222
0.707106781186547,1.,0.707106781186548,1.,-12.025,16.2,0.,           125P    223
-12.025,16.2,12.025,-7.36318887987346D-016,16.2,12.025,12.025,       125P    224
16.2,12.025,12.025,16.2,1.47263777597469D-015,0.,                    125P    225
3.14159265358979,0.,0.,0.;                                           125P    226
126,4,2,0,0,0,0,3.14159265358979,3.14159265358979,                   127P    227
3.14159265358979,4.71238898038469,4.71238898038469,                  127P    228
6.28318530717959,6.28318530717959,6.28318530717959,1.,               127P    229
0.707106781186548,1.,0.707106781186547,1.,12.025,16.2,               127P    230
1.47263777597469D-015,12.025,16.2,-12.025,2.20895666396204D-015,     127P    231
16.2,-12.025,-12.025,16.2,-12.025,-12.025,16.2,                      127P    232
-2.94527555194939D-015,3.14159265358979,6.28318530717959,0.,0.,      127P    233
0.;                                                                  127P    234
126,1,1,0,0,1,0,-0.543659043645036,-0.543659043645036,               129P    235
0.477130977144984,0.477130977144984,1.,1.,12.025,16.2,0.,12.025,     129P    236
3.925,0.,-0.543659043645036,0.477130977144984,0.,0.,0.;              129P    237
126,4,2,0,0,0,0,0.,0.,0.,1.5707963267949,1.5707963267949,            131P    238
3.14159265358979,3.14159265358979,3.14159265358979,1.,               131P    239
0.707106781186547,1.,0.707106781186548,1.,-12.025,3.925,0.,          131P    240
-12.025,3.925,12.025,-7.36318887987346D-016,3.925,12.025,12.025,     131P    241
3.925,12.025,12.025,3.925,1.47263777597469D-015,0.,                  131P    242
3.14159265358979,0.,0.,0.;                                           131P    243
126,4,2,0,0,0,0,3.14159265358979,3.14159265358979,                   133P    244
3.14159265358979,4.71238898038469,4.71238898038469,                  133P    245
6.28318530717959,6.28318530717959,6.28318530717959,1.,               133P    246
0.707106781186548,1.,0.707106781186547,1.,12.025,3.925,              133P    247
1.47263777597469D-015,12.025,3.925,-12.025,                          133P    248
2.20895666396204D-015,3.925,-12.025,-12.025,3.925,-12.025,           133P    249
-12.025,3.925,-2.94527555194939D-015,3.14159265358979,               133P    250
6.28318530717959,0.,0.,0.;                                           133P    251
126,1,1,0,0,1,0,-0.198419597223035,-0.198419597223035,               135P    252
0.198419597223035,0.198419597223035,1.,1.,12.025,3.925,0.,15.95,     135P    253
-2.77555756156289D-016,0.,-0.198419597223035,0.198419597223035,      135P    254
0.,0.,0.;                                                            135P    255
128,1,1,1,1,0,0,1,0,0,-0.14,-0.14,3.215,3.215,-1.6775,-1.6775,       137P    256
1.6775,1.6775,1.,1.,1.,1.,-16.775,10.,-16.775,-16.775,10.,           137P    257
16.775,16.775,10.,-16.775,16.775,10.,16.775,-0.14,3.215,-1.6775,     137P    258
1.6775;                                                              137P    259
128,1,8,1,2,0,1,0,0,0,-0.0975609756097562,-0.0975609756097562,       139P    260
0.097560975609756,0.097560975609756,-3.14159265358979,               139P    261
-3.14159265358979,-3.14159265358979,-1.5707963267949,                139P    262
-1.5707963267949,0.,0.,1.5707963267949,1.5707963267949,              139P    263
3.14159265358979,3.14159265358979,3.14159265358979,1.,1.,            139P    264
0.707106781186548,0.707106781186548,1.,1.,0.707106781186548,         139P    265
0.707106781186548,1.,1.,0.707106781186548,0.707106781186548,1.,      139P    266
1.,0.707106781186548,0.707106781186548,1.,1.,0.,10.,-15.375,0.,      139P    267
13.,-15.375,15.375,10.,-15.375,15.375,13.,-15.375,15.375,10.,0.,     139P    268
15.375,13.,0.,15.375,10.,15.375,15.375,13.,15.375,0.,10.,15.375,     139P    269
0.,13.,15.375,-15.375,10.,15.375,-15.375,13.,15.375,-15.375,10.,     139P    270
0.,-15.375,13.,0.,-15.375,10.,-15.375,-15.375,13.,-15.375,0.,        139P    271
10.,-15.375,0.,13.,-15.375,-0.0975609756097562,                      139P    272
0.097560975609756,-3.14159265358979,3.14159265358979;                139P    273
128,1,1,1,1,0,0,1,0,0,-3.355,-3.355,0.,0.,-1.6775,-1.6775,           141P    274
1.6775,1.6775,1.,1.,1.,1.,-16.775,13.,16.775,-16.775,13.,            141P    275
-16.775,16.775,13.,16.775,16.775,13.,-16.775,-3.355,0.,-1.6775,      141P    276
1.6775;                                                              141P    277
128,1,8,1,2,0,1,0,0,0,0.253353204172876,0.253353204172876,           143P    278
0.432190760059613,0.432190760059613,-3.14159265358979,               143P    279
-3.14159265358979,-3.14159265358979,-1.5707963267949,                143P    280
-1.5707963267949,0.,0.,1.5707963267949,1.5707963267949,              143P    281
3.14159265358979,3.14159265358979,3.14159265358979,1.,1.,            143P    282
0.707106781186548,0.707106781186548,1.,1.,0.707106781186548,         143P    283
0.707106781186548,1.,1.,0.707106781186548,0.707106781186548,1.,      143P    284
1.,0.707106781186548,0.707106781186548,1.,1.,16.775,16.,0.,          143P    285
16.775,13.,0.,16.775,16.,-16.775,16.775,13.,-16.775,0.,16.,          143P    286
-16.775,0.,13.,-16.775,-16.775,16.,-16.775,-16.775,13.,-16.775,      143P    287
-16.775,16.,0.,-16.775,13.,0.,-16.775,16.,16.775,-16.775,13.,        143P    288
16.775,0.,16.,16.775,0.,13.,16.775,16.775,16.,16.775,16.775,13.,     143P    289
16.775,16.775,16.,0.,16.775,13.,0.,0.253353204172876,                143P    290
0.432190760059613,-3.14159265358979,3.14159265358979;                143P    291
128,1,1,1,1,0,0,1,0,0,-1.625,-1.625,1.625,1.625,                     145P    292
-0.0150000000000001,-0.0150000000000001,3.235,3.235,1.,1.,1.,1.,     145P    293
-16.25,-1.22173251907276D-016,16.25,-16.25,                          145P    294
-1.22173251907276D-016,-16.25,16.25,-1.22173251907276D-016,          145P    295
16.25,16.25,-1.22173251907276D-016,-16.25,-1.625,1.625,              145P    296
-0.0150000000000001,3.235;                                           145P    297
128,1,8,1,2,0,1,0,0,0,-0.0461538461538461,-0.0461538461538461,       147P    298
0.0461538461538461,0.0461538461538461,-3.14159265358979,             147P    299
-3.14159265358979,-3.14159265358979,-1.5707963267949,                147P    300
-1.5707963267949,0.,0.,1.5707963267949,1.5707963267949,              147P    301
3.14159265358979,3.14159265358979,3.14159265358979,1.,1.,            147P    302
0.707106781186548,0.707106781186548,1.,1.,0.707106781186548,         147P    303
0.707106781186548,1.,1.,0.707106781186548,0.707106781186548,1.,      147P    304
1.,0.707106781186548,0.707106781186548,1.,1.,16.25,1.5,0.,16.25,     147P    305
2.77555756156289D-016,0.,16.25,1.5,-16.25,16.25,                     147P    306
2.77555756156289D-016,-16.25,0.,1.5,-16.25,0.,                       147P    307
2.77555756156289D-016,-16.25,-16.25,1.5,-16.25,-16.25,               147P    308
2.77555756156289D-016,-16.25,-16.25,1.5,0.,-16.25,                   147P    309
2.77555756156289D-016,0.,-16.25,1.5,16.25,-16.25,                    147P    310
2.77555756156289D-016,16.25,0.,1.5,16.25,0.,                         147P    311
2.77555756156289D-016,16.25,16.25,1.5,16.25,16.25,                   147P    312
2.77555756156289D-016,16.25,16.25,1.5,0.,16.25,                      147P    313
2.77555756156289D-016,0.,-0.0461538461538461,0.0461538461538461,     147P    314
-3.14159265358979,3.14159265358979;                                  147P    315
128,1,1,1,1,0,0,1,0,0,-1.6775,-1.6775,1.6775,1.6775,                 149P    316
-0.0262499999999999,-0.0262499999999999,3.32875,3.32875,1.,1.,       149P    317
1.,1.,-16.775,1.5,16.775,-16.775,1.5,-16.775,16.775,1.5,16.775,      149P    318
16.775,1.5,-16.775,-1.6775,1.6775,-0.0262499999999999,3.32875;       149P    319
128,1,8,1,2,0,1,0,0,0,-0.432190760059612,-0.432190760059612,         151P    320
0.0745156482861404,0.0745156482861404,-3.14159265358979,             151P    321
-3.14159265358979,-3.14159265358979,-1.5707963267949,                151P    322
-1.5707963267949,0.,0.,1.5707963267949,1.5707963267949,              151P    323
3.14159265358979,3.14159265358979,3.14159265358979,1.,1.,            151P    324
0.707106781186548,0.707106781186548,1.,1.,0.707106781186548,         151P    325
0.707106781186548,1.,1.,0.707106781186548,0.707106781186548,1.,      151P    326
1.,0.707106781186548,0.707106781186548,1.,1.,16.775,10.,0.,          151P    327
16.775,1.5,0.,16.775,10.,-16.775,16.775,1.5,-16.775,0.,10.,          151P    328
-16.775,0.,1.5,-16.775,-16.775,10.,-16.775,-16.775,1.5,-16.775,      151P    329
-16.775,10.,0.,-16.775,1.5,0.,-16.775,10.,16.775,-16.775,1.5,        151P    330
16.775,0.,10.,16.775,0.,1.5,16.775,16.775,10.,16.775,16.775,1.5,     151P    331
16.775,16.775,10.,0.,16.775,1.5,0.,-0.432190760059612,               151P    332
0.0745156482861404,-3.14159265358979,3.14159265358979;               151P    333
128,1,8,1,2,0,1,0,0,0,-0.0434474212710629,-0.0434474212710629,       153P    334
0.0434474212710629,0.0434474212710629,-3.14159265358979,             153P    335
-3.14159265358979,-3.14159265358979,-1.5707963267949,                153P    336
-1.5707963267949,0.,0.,1.5707963267949,1.5707963267949,              153P    337
3.14159265358979,3.14159265358979,3.14159265358979,1.,1.,            153P    338
0.707106781186548,0.707106781186548,1.,1.,0.707106781186548,         153P    339
0.707106781186548,1.,1.,0.707106781186548,0.707106781186548,1.,      153P    340
1.,0.707106781186548,0.707106781186548,1.,1.,15.775,17.,0.,          153P    341
16.775,16.,0.,15.775,17.,-15.775,16.775,16.,-16.775,0.,17.,          153P    342
-15.775,0.,16.,-16.775,-15.775,17.,-15.775,-16.775,16.,-16.775,      153P    343
-15.775,17.,0.,-16.775,16.,0.,-15.775,17.,15.775,-16.775,16.,        153P    344
16.775,0.,17.,15.775,0.,16.,16.775,15.775,17.,15.775,16.775,16.,     153P    345
16.775,15.775,17.,0.,16.775,16.,0.,-0.0434474212710629,              153P    346
0.0434474212710629,-3.14159265358979,3.14159265358979;               153P    347
128,1,1,1,1,0,0,1,0,0,-1.5775,-1.5775,1.5775,1.5775,-0.26125,        155P    348
-0.26125,2.89375,2.89375,1.,1.,1.,1.,-15.775,17.,-15.775,            155P    349
-15.775,17.,15.775,15.775,17.,-15.775,15.775,17.,15.775,-1.5775,     155P    350
1.5775,-0.26125,2.89375;                                             155P    351
128,1,8,1,2,0,1,0,0,0,-0.045528002007987,-0.045528002007987,         157P    352
0.0455280020079869,0.0455280020079869,-3.14159265358979,             157P    353
-3.14159265358979,-3.14159265358979,-1.5707963267949,                157P    354
-1.5707963267949,0.,0.,1.5707963267949,1.5707963267949,              157P    355
3.14159265358979,3.14159265358979,3.14159265358979,1.,1.,            157P    356
0.707106781186548,0.707106781186548,1.,1.,0.707106781186548,         157P    357
0.707106781186548,1.,1.,0.707106781186548,0.707106781186548,1.,      157P    358
1.,0.707106781186548,0.707106781186548,1.,1.,12.025,16.2,0.,         157P    359
12.825,17.,0.,12.025,16.2,-12.025,12.825,17.,-12.825,0.,16.2,        157P    360
-12.025,0.,17.,-12.825,-12.025,16.2,-12.025,-12.825,17.,-12.825,     157P    361
-12.025,16.2,0.,-12.825,17.,0.,-12.025,16.2,12.025,-12.825,17.,      157P    362
12.825,0.,16.2,12.025,0.,17.,12.825,12.025,16.2,12.025,12.825,       157P    363
17.,12.825,12.025,16.2,0.,12.825,17.,0.,-0.045528002007987,          157P    364
0.0455280020079869,-3.14159265358979,3.14159265358979;               157P    365
128,1,8,1,2,0,1,0,0,0,-0.477130977144984,-0.477130977144984,         159P    366
0.543659043645036,0.543659043645036,-3.14159265358979,               159P    367
-3.14159265358979,-3.14159265358979,-1.5707963267949,                159P    368
-1.5707963267949,0.,0.,1.5707963267949,1.5707963267949,              159P    369
3.14159265358979,3.14159265358979,3.14159265358979,1.,1.,            159P    370
0.707106781186548,0.707106781186548,1.,1.,0.707106781186548,         159P    371
0.707106781186548,1.,1.,0.707106781186548,0.707106781186548,1.,      159P    372
1.,0.707106781186548,0.707106781186548,1.,1.,12.025,3.925,0.,        159P    373
12.025,16.2,0.,12.025,3.925,-12.025,12.025,16.2,-12.025,0.,          159P    374
3.925,-12.025,0.,16.2,-12.025,-12.025,3.925,-12.025,-12.025,         159P    375
16.2,-12.025,-12.025,3.925,0.,-12.025,16.2,0.,-12.025,3.925,         159P    376
12.025,-12.025,16.2,12.025,0.,3.925,12.025,0.,16.2,12.025,           159P    377
12.025,3.925,12.025,12.025,16.2,12.025,12.025,3.925,0.,12.025,       159P    378
16.2,0.,-0.477130977144984,0.543659043645036,-3.14159265358979,      159P    379
3.14159265358979;                                                    159P    380
128,1,8,1,2,0,1,0,0,0,-0.198419597223035,-0.198419597223035,         161P    381
0.198419597223035,0.198419597223035,-3.14159265358979,               161P    382
-3.14159265358979,-3.14159265358979,-1.5707963267949,                161P    383
-1.5707963267949,0.,0.,1.5707963267949,1.5707963267949,              161P    384
3.14159265358979,3.14159265358979,3.14159265358979,1.,1.,            161P    385
0.707106781186548,0.707106781186548,1.,1.,0.707106781186548,         161P    386
0.707106781186548,1.,1.,0.707106781186548,0.707106781186548,1.,      161P    387
1.,0.707106781186548,0.707106781186548,1.,1.,15.95,                  161P    388
-2.77555756156289D-016,0.,12.025,3.925,0.,15.95,                     161P    389
-2.77555756156289D-016,-15.95,12.025,3.925,-12.025,0.,               161P    390
-2.77555756156289D-016,-15.95,0.,3.925,-12.025,-15.95,               161P    391
-2.77555756156289D-016,-15.95,-12.025,3.925,-12.025,-15.95,          161P    392
-2.77555756156289D-016,0.,-12.025,3.925,0.,-15.95,                   161P    393
-2.77555756156289D-016,15.95,-12.025,3.925,12.025,0.,                161P    394
-2.77555756156289D-016,15.95,0.,3.925,12.025,15.95,                  161P    395
-2.77555756156289D-016,15.95,12.025,3.925,12.025,15.95,              161P    396
-2.77555756156289D-016,0.,12.025,3.925,0.,-0.198419597223035,        161P    397
0.198419597223035,-3.14159265358979,3.14159265358979;                161P    398
502,26,0.,10.,15.375,0.,10.,-15.375,0.,10.,16.775,16.775,10.,0.,     163P    399
0.,13.,15.375,0.,13.,-15.375,0.,13.,16.775,16.775,13.,0.,            163P    400
-16.775,16.,0.,16.775,16.,0.,-16.25,3.10765008498025D-016,0.,        163P    401
16.25,2.77555756156289D-016,0.,-15.95,-5.55111512312578D-016,0.,     163P    402
15.95,-2.77555756156289D-016,0.,-16.25,1.5,0.,16.25,1.5,0.,          163P    403
-16.775,1.5,0.,16.775,1.5,0.,-15.775,17.,0.,15.775,17.,0.,           163P    404
-12.825,17.,0.,12.825,17.,0.,12.025,16.2,0.,-12.025,16.2,0.,         163P    405
12.025,3.925,0.,-12.025,3.925,0.;                                    163P    406
504,34,69,163,1,163,2,71,163,2,163,1,73,163,3,163,4,75,163,4,        165P    407
163,3,77,163,5,163,6,79,163,6,163,2,81,163,6,163,5,83,163,7,163,     165P    408
8,85,163,8,163,7,87,163,9,163,10,89,163,10,163,9,91,163,10,163,      165P    409
8,93,163,11,163,12,95,163,12,163,11,97,163,13,163,14,99,163,14,      165P    410
163,13,101,163,15,163,16,103,163,16,163,15,105,163,16,163,12,        165P    411
107,163,17,163,18,109,163,18,163,17,111,163,4,163,18,113,163,19,     165P    412
163,20,115,163,20,163,19,117,163,20,163,10,119,163,21,163,22,        165P    413
121,163,22,163,21,123,163,22,163,23,125,163,24,163,23,127,163,       165P    414
23,163,24,129,163,23,163,25,131,163,26,163,25,133,163,25,163,26,     165P    415
135,163,25,163,14;                                                   165P    416
406,1,8HSólido1;                                                    167P    417
314,74.9019607843137,74.9019607843137,74.9019607843137,;             169P    418
S      1G      2D    170P    418                                        T      1
